<?xml version="1.0" encoding="UTF-8"?>
<svg xmlns="http://www.w3.org/2000/svg"
     width="1024" height="1024" viewBox="0 0 1024 1024"
     role="img" aria-labelledby="title desc">
  <title id="title">Spotify folder logo</title>
  <desc id="desc">A green folder combined with three black Spotify-style curved lines.</desc>

  <defs>
    <linearGradient id="folderBack" x1="0" y1="0" x2="0.9" y2="1">
      <stop offset="0%" stop-color="#72e67b"/>
      <stop offset="58%" stop-color="#48cf68"/>
      <stop offset="100%" stop-color="#20a84f"/>
    </linearGradient>

    <linearGradient id="folderFront" x1="0.15" y1="0" x2="0.85" y2="1">
      <stop offset="0%" stop-color="#68df75"/>
      <stop offset="68%" stop-color="#4fd46c"/>
      <stop offset="100%" stop-color="#2bb85a"/>
    </linearGradient>

    <linearGradient id="frontLip" x1="0" y1="0" x2="0" y2="1">
      <stop offset="0%" stop-color="#38c75f"/>
      <stop offset="100%" stop-color="#1f9e4d"/>
    </linearGradient>

    <filter id="softShadow" x="-20%" y="-20%" width="140%" height="140%">
      <feDropShadow dx="0" dy="14" stdDeviation="18"
                    flood-color="#07140d" flood-opacity="0.35"/>
    </filter>

    <filter id="innerGlow" x="-20%" y="-20%" width="140%" height="140%">
      <feGaussianBlur in="SourceAlpha" stdDeviation="6" result="blur"/>
      <feOffset dx="0" dy="2"/>
      <feComposite in2="SourceAlpha" operator="out"/>
      <feColorMatrix values="0 0 0 0 0.65
                             0 0 0 0 1
                             0 0 0 0 0.72
                             0 0 0 0.4 0"/>
      <feBlend in="SourceGraphic" mode="screen"/>
    </filter>
  </defs>

  <g filter="url(#softShadow)">
    <!-- Back folder body -->
    <path
      d="M205 205
         H382
         Q410 205 424 232
         L450 287
         H759
         Q801 287 801 329
         V661
         Q801 793 669 793
         H205
         Q164 793 164 752
         V246
         Q164 205 205 205 Z"
      fill="url(#folderBack)"
      stroke="#0d1511"
      stroke-width="24"
      stroke-linejoin="round"/>

    <!-- Back folder inner opening -->
    <path
      d="M315 355
         H725
         Q742 355 742 372
         V559
         H315
         Z"
      fill="#1d2a23"
      stroke="#0d1511"
      stroke-width="18"
      stroke-linejoin="round"/>

    <!-- Subtle back highlight -->
    <path
      d="M208 234
         H375
         Q390 234 398 250
         L424 304
         Q432 321 451 321
         H751
         Q770 321 770 340"
      fill="none"
      stroke="#9af0a4"
      stroke-opacity="0.52"
      stroke-width="8"
      stroke-linecap="round"
      stroke-linejoin="round"/>
  </g>

  <!-- Front folder panel -->
  <g filter="url(#softShadow)">
    <path
      d="M391 421
         H841
         Q872 421 864 452
         L775 778
         Q766 811 731 811
         H277
         Q244 811 253 778
         L349 454
         Q358 421 391 421 Z"
      fill="url(#folderFront)"
      stroke="#0d1511"
      stroke-width="24"
      stroke-linejoin="round"/>

    <!-- Bottom lip -->
    <path
      d="M270 756
         H789
         L779 791
         Q773 811 744 811
         H277
         Q252 811 257 792
         Z"
      fill="url(#frontLip)"
      opacity="0.82"/>

    <!-- Front highlight -->
    <path
      d="M395 445
         H831
         Q847 445 842 463
         L768 729
         Q762 750 741 750
         H296"
      fill="none"
      stroke="#a0f3aa"
      stroke-opacity="0.45"
      stroke-width="8"
      stroke-linecap="round"
      stroke-linejoin="round"/>

    <!-- Spotify-style curves -->
    <path
      d="M416 526
         C534 498 655 511 744 565"
      fill="none"
      stroke="#0c1310"
      stroke-width="52"
      stroke-linecap="round"/>

    <path
      d="M437 611
         C531 588 632 599 706 642"
      fill="none"
      stroke="#0c1310"
      stroke-width="40"
      stroke-linecap="round"/>

    <path
      d="M454 681
         C530 663 606 672 660 705"
      fill="none"
      stroke="#0c1310"
      stroke-width="30"
      stroke-linecap="round"/>
  </g>
</svg>
